# xmcd
#
# Track frame offsets:
#	150
#	18040
#	32695
#	50765
#	67385
#	86731
#	105706
#	122350
#	137409
#	159068
#	176962
#	193780
#	207844
#	223367
#	239157
#	257145
#	272449
#	290607
#	308152
#	324063
#
# Disc length: 4565
#
# Revision: 1
# Processed by: cddbd v1.5.1PL0 Copyright (c) Steve Scherf et al.
# Submitted via: CDex 1.50beta10
# Normalized: r0:DSETVAR1
#
DISCID=2911d314
DTITLE=Various Artist - American Country Countdown - 4/5/03 - CD1
DYEAR=2003
DGENRE=Country
TTITLE0=Darryl Worley - Have You Forgotten
TTITLE1=Joe Nichols - Brokenheartsville
TTITLE2=Kenny Chesney - Big Star
TTITLE3=Alan Jackson - That'd Be Alright
TTITLE4=Tim McGraw - She's My Kind Of Rain
TTITLE5=Martina McBride - Concrete Angel
TTITLE6=Gary Allan - Man To Man
TTITLE7=Mark Wills - Nineteen Somethin'
TTITLE8=Keith Urban - Rainin' On Sunday
TTITLE9=Diamond Rio - I Believe
TTITLE10=Chris Cagle - What A Beautiful Day
TTITLE11=Rascal Flatts - Love You Out Loud
TTITLE12=Terri Clark - I Just Wanna Be Mad
TTITLE13=Deana Carter - There's No Limit
TTITLE14=Blake Shelton - The Baby
TTITLE15=Randy Travis - Three Wooden Crosses
TTITLE16=Toby Keith - Rock You Baby
TTITLE17=Keith Urban - Somebody Like You
TTITLE18=Phil Vassar - This Is God
TTITLE19=Jeff Bates - The Love Song
EXTD=YEAR: 2003
EXTT0=
EXTT1=
EXTT2=
EXTT3=
EXTT4=
EXTT5=
EXTT6=
EXTT7=
EXTT8=
EXTT9=
EXTT10=
EXTT11=
EXTT12=
EXTT13=
EXTT14=
EXTT15=
EXTT16=
EXTT17=
EXTT18=
EXTT19=
PLAYORDER=
